<?xml version="1.0" encoding="UTF-8"?>
<svg width="24px" height="24px" viewBox="0 0 24 24" version="1.1" xmlns="http://www.w3.org/2000/svg" xmlns:xlink="http://www.w3.org/1999/xlink">
    <title>路径</title>
    <g id="官网" stroke="none" stroke-width="1" fill="none" fill-rule="evenodd" opacity="0.99">
        <g id="NEOVATE-首页" fill-rule="nonzero" transform="translate(-1465, -29)" fill="#FFFFFF">
            <path d="M1477,29 C1483.63,29 1489,34.5058251 1489,41.3034977 C1488.9994,43.8813942 1488.21023,46.3942105 1486.74374,48.4881657 C1485.27726,50.5822085 1483.20726,52.1519304 1480.825,52.9765139 C1480.225,53.0994919 1480,52.7150542 1480,52.3921054 C1480,51.9768356 1480.015,50.6542085 1480.015,49.0086326 C1480.015,47.8551441 1479.64,47.1169255 1479.205,46.7324877 C1481.875,46.4248674 1484.68,45.3790285 1484.68,40.6576002 C1484.68,39.3042286 1484.215,38.2122291 1483.45,37.3510149 C1483.57,37.0434297 1483.99,35.7823179 1483.33,34.0905815 C1483.33,34.0905815 1482.325,33.7522342 1480.03,35.3516933 C1479.07,35.0748613 1478.05,34.9364497 1477.03,34.9364497 C1476.01,34.9364497 1474.99,35.0748613 1474.03,35.3516933 C1471.735,33.7676152 1470.73,34.0905815 1470.73,34.0905815 C1470.07,35.7823179 1470.49,37.0434297 1470.61,37.3510149 C1469.845,38.2122291 1469.38,39.319557 1469.38,40.6576002 C1469.38,45.3637001 1472.17,46.4248674 1474.84,46.7324877 C1474.495,47.0400204 1474.18,47.5783559 1474.075,48.3780636 C1473.385,48.7010123 1471.66,49.2239318 1470.58,47.3629692 C1470.355,46.9938599 1469.68,46.0865026 1468.735,46.1019187 C1467.73,46.1172472 1468.33,46.6863272 1468.75,46.9170424 C1469.26,47.2092466 1469.845,48.3011585 1469.98,48.6548518 C1470.22,49.3469098 1471,50.6695369 1474.015,50.1005445 C1474.015,51.1309673 1474.03,52.0999012 1474.03,52.3921054 C1474.03,52.7150542 1473.805,53.0841635 1473.205,52.9765139 C1470.81496,52.1607771 1468.73611,50.5942085 1467.26334,48.499027 C1465.79057,46.403758 1464.99868,43.8862117 1465,41.3034977 C1465,34.5058251 1470.37,29 1477,29 Z" id="路径"></path>
        </g>
    </g>
</svg>