<?xml version="1.0" encoding="UTF-8"?>
<svg width="38px" height="38px" viewBox="0 0 38 38" version="1.1" xmlns="http://www.w3.org/2000/svg" xmlns:xlink="http://www.w3.org/1999/xlink">
    <title>Neo01</title>
    <g id="官网" stroke="none" stroke-width="1" fill="none" fill-rule="evenodd" opacity="0.99">
        <g id="NEOVATE-首页" fill-rule="nonzero" transform="translate(-385, -4407)" fill="#FFFFFC">
            <g id="Neo01" fill-rule="evenodd" transform="translate(385, 4407)">
                <rect id="矩形" fill-rule="nonzero" opacity="0" x="0" y="0" width="37.97788" height="37.97788"></rect>
                <path d="M36.1694096,0 C37.1682002,0 37.97788,0.809679812 37.97788,1.80847048 L37.97788,36.1694096 C37.97788,37.1682002 37.1682002,37.97788 36.1694096,37.97788 L1.80847048,37.97788 C0.809679812,37.97788 0,37.1682002 0,36.1694096 L0,1.80847048 C0,0.809679812 0.809679812,0 1.80847048,0 L36.1694096,0 Z M35.8574484,0.904235239 L2.12043163,0.904235239 C1.45129756,0.904235239 0.904235239,1.46033991 0.904235239,2.13851634 L0.904235239,35.6042625 C0.904235239,36.4135531 1.55528461,37.0736448 2.35101162,37.0736448 L35.8574484,37.0736448 C36.5265825,37.0736448 37.0736448,36.5175401 37.0736448,35.8393637 L37.0736448,2.13851634 C37.0736448,1.46033991 36.5265825,0.904235239 35.8574484,0.904235239 Z M36.1784519,1.91697871 L36.2236637,36.1513248 L15.9235826,14.6757379 C15.5799732,14.3140438 15.6658755,13.7172486 16.0953873,13.4685839 L36.1784519,1.91697871 Z M1.93958459,2.6403669 L18.2293824,35.2787378 C18.4789513,36.1983451 17.5068985,36.1468037 17.4458626,36.1422825 L2.77148101,36.1422825 C1.7781786,36.1422825 1.71216942,35.1345123 1.7090046,35.0694074 L1.7090046,2.69462101 C1.77682224,2.4504775 1.93958459,2.6403669 1.93958459,2.6403669 Z M14.9922203,14.9379661 L24.274195,24.8257785 L19.0793635,35.1516928 L10.03249,16.9498896 L13.8393203,14.7661614 C14.2170551,14.5496378 14.6940282,14.6207161 14.9922203,14.9379661 L14.9922203,14.9379661 Z" id="形状"></path>
            </g>
        </g>
    </g>
</svg>