<?xml version="1.0" encoding="UTF-8"?>
<svg width="1130px" height="216px" viewBox="0 0 1130 216" version="1.1" xmlns="http://www.w3.org/2000/svg" xmlns:xlink="http://www.w3.org/1999/xlink">
    <title>NEOVATE</title>
    <g id="官网" stroke="none" stroke-width="1" fill="none" fill-rule="evenodd" opacity="0.99">
        <g id="NEOVATE-首页" fill-rule="nonzero" transform="translate(-375, -4738)" fill="#000000">
            <g id="NEOVATE" fill-rule="evenodd" transform="translate(375, 4738)">
                <polygon id="路径" fill-rule="nonzero" points="0 213 49.6086957 213 49.6086957 72.5965418 51.1273292 72.5965418 92.8897516 213 163 213 163 3 113.897516 3 113.897516 134.628242 112.378882 134.628242 75.931677 3 0 3"></polygon>
                <polygon id="路径" fill-rule="nonzero" points="247.291939 161.256484 247.291939 131.602305 306.176471 131.602305 306.176471 81.6743516 247.291939 81.6743516 247.291939 55.0461095 311.48366 55.0461095 311.48366 3 197 3 197 213 313 213 313 161.256484"></polygon>
                <path d="M419,216 C471.541284,216 502,194.521008 502,108 C502,21.7815126 471.541284,0 419,0 C366.712538,0 336,21.7815126 336,108 C336,194.521008 366.712538,216 419,216 Z M419,166.386555 C394.88685,166.386555 389.302752,153.07563 389.302752,108 C389.302752,62.3193277 394.88685,48.7058824 419,48.7058824 C443.11315,48.7058824 448.95107,62.3193277 448.95107,108 C448.95107,153.07563 443.11315,166.386555 419,166.386555 Z" id="形状" fill-rule="nonzero"></path>
                <polygon id="路径" fill-rule="nonzero" points="570.319783 213 632.906504 213 696 3 642.788618 3 603.766938 148.850144 602.246612 148.850144 565.252033 3 509 3"></polygon>
                <path d="M821.249678,213 L875,213 L810.854569,3 L742.65251,3 L678,213 L730.736165,213 L756.597169,120.540826 L796.036608,120.540826 L821.249678,213 Z M756.597169,120.40634 L774.851995,54.7435159 L777.894466,54.7435159 L795.895753,120.40634 L756.597169,120.40634 Z" id="形状" fill-rule="nonzero"></path>
                <polygon id="路径" fill-rule="nonzero" points="992 3 858 3 858 55.6512968 899.795841 55.6512968 899.795841 213 949.950851 213 949.950851 55.6512968 992 55.6512968"></polygon>
                <polygon id="路径" fill-rule="nonzero" points="1064.29194 161.256484 1064.29194 131.602305 1123.17647 131.602305 1123.17647 81.6743516 1064.29194 81.6743516 1064.29194 55.0461095 1128.48366 55.0461095 1128.48366 3 1014 3 1014 213 1130 213 1130 161.256484"></polygon>
            </g>
        </g>
    </g>
</svg>