<?xml version="1.0" encoding="UTF-8"?>
<svg width="948px" height="52px" viewBox="0 0 948 52" version="1.1" xmlns="http://www.w3.org/2000/svg" xmlns:xlink="http://www.w3.org/1999/xlink">
    <title>Build with Neovate</title>
    <g id="官网" stroke="none" stroke-width="1" fill="none" fill-rule="evenodd" opacity="0.99">
        <g id="NEOVATE-首页" fill-rule="nonzero" transform="translate(-486, -354)" fill="#FFFFFF">
            <g id="编组-3" fill-rule="evenodd" transform="translate(0, -0)">
                <g id="编组-4" transform="translate(486, 283)" fill-rule="nonzero">
                    <g id="Build-with-Neovate" transform="translate(0, 71)">
                        <path d="M0,2 L25.0282752,2 C27.9224003,2 30.5138234,2.32783751 32.8025448,2.98351254 C35.0912661,3.63918757 37.0256048,4.52317802 38.6055608,5.63548387 C40.1855168,6.74778973 41.3963242,8.04157706 42.237983,9.51684588 C43.0796418,10.9921147 43.5004713,12.5610514 43.5004713,14.2236559 C43.5004713,16.2843489 42.9172165,18.1986858 41.7507069,19.9666667 C40.5841973,21.7346476 38.819667,23.321147 36.4571159,24.7261649 C38.3471568,25.3584229 39.9566447,26.1136201 41.2855796,26.9917563 C42.6145146,27.8698925 43.6998115,28.8299881 44.5414703,29.872043 C45.3831291,30.914098 46.0032988,32.0205496 46.4019793,33.1913978 C46.8006598,34.3622461 47,35.5565114 47,36.7741935 C47,38.7412186 46.468426,40.5911589 45.405278,42.3240143 C44.3421301,44.0568698 42.9172165,45.5614098 41.1305372,46.8376344 C39.343858,48.113859 37.2840088,49.1266428 34.9509896,49.8759857 C32.6179705,50.6253286 30.1963556,51 27.6861451,51 L0,51 L0,2 Z M10.4542884,21.5297491 L23.5664467,21.5297491 C25.0135093,21.5297491 26.3498272,21.3482676 27.5754006,20.9853047 C28.8009739,20.6223417 29.8567389,20.1305854 30.7426956,19.5100358 C31.6286522,18.8894863 32.3152686,18.1635603 32.8025448,17.3322581 C33.2898209,16.5009558 33.533459,15.6286738 33.533459,14.7154122 C33.533459,13.8724014 33.3562677,13.1054958 33.001885,12.4146953 C32.6475024,11.7238949 32.1085454,11.120908 31.3850141,10.6057348 C30.6614829,10.0905615 29.7386114,9.69247312 28.6163996,9.41146953 C27.4941879,9.13046595 26.1800189,8.98996416 24.6738926,8.98996416 L10.4542884,8.98996416 L10.4542884,21.5297491 Z M10.4542884,43.9046595 L25.072573,43.9046595 C26.401508,43.9046595 27.737826,43.7641577 29.0815269,43.4831541 C30.4252278,43.2021505 31.6360352,42.7630824 32.7139491,42.1659498 C33.791863,41.5688172 34.6704367,40.8077658 35.3496701,39.8827957 C36.0289036,38.9578256 36.3685203,37.8396655 36.3685203,36.5283154 C36.3685203,35.451135 36.0584354,34.4207885 35.4382658,33.437276 C34.8180961,32.4537634 33.9247565,31.5990442 32.7582469,30.8731183 C31.5917374,30.1471924 30.1668238,29.5676225 28.4835061,29.1344086 C26.8001885,28.7011947 24.9101477,28.4845878 22.8133836,28.4845878 L10.4542884,28.4845878 L10.4542884,43.9046595 Z" id="形状"></path>
                        <path d="M69.4695009,2 L69.4695009,34.3076923 C69.4695009,36.009324 69.8243993,37.530303 70.5341959,38.8706294 C71.2439926,40.2109557 72.1903882,41.3414918 73.3733826,42.2622378 C74.5563771,43.1829837 75.9242144,43.8822844 77.4768946,44.3601399 C79.0295749,44.8379953 80.6487985,45.0769231 82.3345656,45.0769231 C84.1386322,45.0769231 85.8909427,44.8554779 87.5914972,44.4125874 C89.2920518,43.969697 90.8077634,43.3053613 92.1386322,42.4195804 C93.4695009,41.5337995 94.5341959,40.4265734 95.3327172,39.0979021 C96.1312384,37.7692308 96.5304991,36.2191142 96.5304991,34.4475524 L96.5304991,2 L103,2 C105.209139,2 107,3.790861 107,6 L107,34.0979021 L107,34.0979021 C107,37.011655 106.312384,39.5815851 104.937153,41.8076923 C103.561922,44.0337995 101.735675,45.9044289 99.4584104,47.4195804 C97.181146,48.9347319 94.5637708,50.0769231 91.6062847,50.8461538 C88.6487985,51.6153846 85.5878004,52 82.4232902,52 C79.4066543,52 76.4861368,51.6212121 73.6617375,50.8636364 C70.8373383,50.1060606 68.3382625,48.9755245 66.1645102,47.472028 C63.9907579,45.9685315 62.2532348,44.0862471 60.9519409,41.8251748 C59.650647,39.5641026 59,36.9417249 59,33.958042 L59,2 L69.4695009,2 Z" id="路径"></path>
                        <path d="M640.584071,6 L640.584071,8.98996416 L640.584071,8.98996416 L607.442478,8.98996416 L607.442478,22.2322581 L631.5,22.4749104 L631.5,29.5 L607.442478,29.2573477 L607.442478,43.9046595 L642,43.9046595 L642,51 L597,51 L597,2 L636.584071,2 C638.79321,2 640.584071,3.790861 640.584071,6 Z" id="路径"></path>
                        <path d="M946.584071,6 L946.584071,8.98996416 L946.584071,8.98996416 L913.442478,8.98996416 L913.442478,22.2322581 L937.5,22.4749104 L937.5,29.5 L913.442478,29.2573477 L913.442478,43.9046595 L948,43.9046595 L948,51 L903,51 L903,2 L942.584071,2 C944.79321,2 946.584071,3.790861 946.584071,6 Z" id="路径"></path>
                        <polygon id="路径" points="132 2 132 51 122 51 122 2"></polygon>
                        <path d="M158.407938,6 L158.407938,43.9046595 L158.407938,43.9046595 L184,43.9046595 C186.209139,43.9046595 188,45.6955205 188,47.9046595 L188,51 L188,51 L148,51 L148,2 L154.407938,2 C156.617077,2 158.407938,3.790861 158.407938,6 Z" id="路径"></path>
                        <path d="M200,2 L223.788296,2 C228.001721,2 231.783563,2.63811231 235.133821,3.91433692 C238.484079,5.19056153 241.336919,6.93512545 243.692341,9.14802867 C246.047762,11.3609319 247.854561,13.9485066 249.112737,16.9107527 C250.370912,19.8729988 251,23.0401434 251,26.4121864 C251,29.9247312 250.341652,33.1796894 249.024957,36.1770609 C247.708262,39.1744325 245.850258,41.7737157 243.450947,43.9749104 C241.051635,46.1761051 238.184165,47.8972521 234.848537,49.1383513 C231.512909,50.3794504 227.826162,51 223.788296,51 L200,51 L200,2 Z M210.358003,43.9046595 L221.330465,43.9046595 C224.110155,43.9046595 226.685026,43.5241338 229.055077,42.7630824 C231.425129,42.0020311 233.466007,40.883871 235.177711,39.4086022 C236.889415,37.9333333 238.228055,36.1126643 239.193632,33.946595 C240.159208,31.7805257 240.641997,29.2924731 240.641997,26.4824373 C240.641997,23.4616487 240.151893,20.8506571 239.171687,18.6494624 C238.19148,16.4482676 236.845525,14.6334528 235.133821,13.2050179 C233.422117,11.776583 231.381239,10.7169654 229.011188,10.0261649 C226.641136,9.3353644 224.080895,8.98996416 221.330465,8.98996416 L210.358003,8.98996416 L210.358003,43.9046595 Z" id="形状"></path>
                        <path d="M314.5,17.0150538 L301.696203,52 L294.603153,52 C292.863773,52 291.323765,50.8759453 290.793536,49.2193529 L276,3 L276,3 L286.898734,3 L297.132911,35.5261649 L308.726101,5.55687099 C309.322208,4.01588838 310.804439,3 312.456701,3 L316.501667,3 C318.1526,3 319.633926,4.01427821 320.230953,5.55347944 L331.734177,35.2100358 L331.734177,35.2100358 L342.189873,3 L353,3 L338.120875,49.2255968 C337.588671,50.879016 336.050224,52 334.313262,52 L327.303797,52 L327.303797,52 L314.5,17.0150538 Z" id="路径"></path>
                        <path d="M809.570278,4.33082712 L831,51 L831,51 L822.657329,51 C821.099664,51 819.68367,50.0957501 819.028438,48.6826004 L810.25,29.75 L810.25,29.75 L802.5,12.75 C801.441176,15.1151135 794.382353,30.3380526 793.25,32.75 C792.55214,34.2364647 790.082269,39.5475187 785.840388,48.6831622 L785.840919,48.6834087 C785.185572,50.0959834 783.770011,50.9998379 782.212819,51 L774,51 L774,51 L795.429722,4.33082712 C796.081958,2.91040157 797.501793,2 799.06481,2 L805.93519,2 C807.498207,2 808.918042,2.91040157 809.570278,4.33082712 Z" id="路径"></path>
                        <polygon id="路径" points="375 2 375 51 365 51 365 2"></polygon>
                        <path d="M436,6 L436,8.98996416 L436,8.98996416 L416.689008,8.98996416 L416.689008,51 L406.354781,51 L406.354781,8.98996416 L387,8.98996416 L387,2 L432,2 C434.209139,2 436,3.790861 436,6 Z" id="路径"></path>
                        <path d="M458.484134,2 L458.484134,22.1971326 L486.515866,22.1971326 L486.515866,2 L493,2 C495.209139,2 497,3.790861 497,6 L497,51 L497,51 L486.515866,51 L486.515866,29.0817204 L458.484134,29.0817204 L458.484134,51 L448,51 L448,2 L458.484134,2 Z" id="路径"></path>
                        <path d="M544.939312,2 L571.525362,39.2681004 L571.525362,2 L578,2 C580.209139,2 582,3.790861 582,6 L582,51 L582,51 L570.193841,51 L543.474638,13.3806452 L543.474638,51 L533,51 L533,2 L544.939312,2 Z" id="路径"></path>
                        <path d="M709,25.8757679 C709,29.709215 708.366667,33.229124 707.1,36.4354949 C705.833333,39.6418658 703.984884,42.3986348 701.554651,44.705802 C699.124419,47.0129693 696.14186,48.8054608 692.606977,50.0832765 C689.072093,51.3610922 685.021705,52 680.455814,52 C675.889922,52 671.846899,51.3551763 668.326744,50.065529 C664.806589,48.7758817 661.831395,46.9774744 659.401163,44.6703072 C656.97093,42.3631399 655.129845,39.6063709 653.877907,36.4 C652.625969,33.1936291 652,29.6737201 652,25.840273 C652,22.0068259 652.625969,18.5046644 653.877907,15.3337884 C655.129845,12.1629124 656.97093,9.44163823 659.401163,7.16996587 C661.831395,4.89829352 664.806589,3.13538111 668.326744,1.88122867 C671.846899,0.627076223 675.889922,0 680.455814,0 C685.021705,0 689.072093,0.632992036 692.606977,1.89897611 C696.14186,3.16496018 699.124419,4.9337884 701.554651,7.20546075 C703.984884,9.47713311 705.833333,12.1984073 707.1,15.3692833 C708.366667,18.5401593 709,22.0423208 709,25.8757679 Z M698.572093,25.840273 C698.572093,22.8350398 698.100775,20.1610922 697.15814,17.81843 C696.215504,15.4757679 694.926744,13.505802 693.29186,11.9085324 C691.656977,10.3112628 689.742248,9.09260523 687.547674,8.25255973 C685.353101,7.41251422 682.989147,6.99249147 680.455814,6.99249147 C677.893023,6.99249147 675.514341,7.41251422 673.319767,8.25255973 C671.125194,9.09260523 669.225194,10.3112628 667.619767,11.9085324 C666.014341,13.505802 664.747674,15.4757679 663.819767,17.81843 C662.89186,20.1610922 662.427907,22.8350398 662.427907,25.840273 C662.427907,28.8455063 662.89186,31.5312856 663.819767,33.8976109 C664.747674,36.2639363 666.014341,38.269397 667.619767,39.9139932 C669.225194,41.5585893 671.125194,42.8127418 673.319767,43.6764505 C675.514341,44.5401593 677.893023,44.9720137 680.455814,44.9720137 C682.989147,44.9720137 685.353101,44.5401593 687.547674,43.6764505 C689.742248,42.8127418 691.656977,41.5585893 693.29186,39.9139932 C694.926744,38.269397 696.215504,36.2639363 697.15814,33.8976109 C698.100775,31.5312856 698.572093,28.8455063 698.572093,25.840273 Z" id="形状"></path>
                        <path d="M741.633166,38.3197133 L755.872918,4.44974093 C756.496955,2.96543567 757.950137,2 759.560287,2 L768,2 L768,2 L748.21665,48.5641335 C747.589169,50.0410374 746.139818,51 744.535144,51 L738.717994,51 C737.119999,51 735.675335,50.0489038 735.043714,48.5810342 L715,2 L715,2 L723.499013,2 C725.101628,2 726.549537,2.95653494 727.1783,4.43065545 L741.633166,38.3197133 L741.633166,38.3197133 Z" id="路径"></path>
                        <path d="M888,6 L888,8.98996416 L888,8.98996416 L868.689008,8.98996416 L868.689008,51 L858.354781,51 L858.354781,8.98996416 L839,8.98996416 L839,2 L884,2 C886.209139,2 888,3.790861 888,6 Z" id="路径"></path>
                    </g>
                </g>
            </g>
        </g>
    </g>
</svg>