<?xml version="1.0" encoding="UTF-8"?>
<svg width="880px" height="52px" viewBox="0 0 880 52" version="1.1" xmlns="http://www.w3.org/2000/svg" xmlns:xlink="http://www.w3.org/1999/xlink">
    <title>Code with Agents</title>
    <g id="官网" stroke="none" strokeWidth="1" fill="none" fill-rule="evenodd" opacity="0.99">
        <g id="NEOVATE-首页" fill-rule="nonzero" transform="translate(-520, -283)" fill="#FFFFFF">
            <g id="编组-3" fill-rule="evenodd" transform="translate(0, -0)">
                <g id="编组-4" transform="translate(486, 283)" fill-rule="nonzero">
                    <g id="Code-with-Agents" transform="translate(34, 0)">
                        <path d="M10.4309392,25.3078498 C10.4309392,28.7153584 10.9539595,31.6614334 12,34.1460751 C13.0460405,36.6307167 14.4235727,38.683504 16.1325967,40.3044369 C17.8416206,41.9253697 19.7790055,43.1321957 21.9447514,43.9249147 C24.1104972,44.7176337 26.2983425,45.1139932 28.5082873,45.1139932 C30.7771639,45.1139932 32.839779,44.7412969 34.6961326,43.9959044 C36.5524862,43.2505119 38.1804788,42.2625711 39.5801105,41.0320819 C40.9797422,39.8015927 42.1362799,38.3995449 43.0497238,36.8259386 C43.9631676,35.2523322 44.626151,33.6373151 45.038674,31.9808874 L55.6464088,31.9808874 C54.9686924,34.7968146 53.8858195,37.4175199 52.3977901,39.8430034 C50.9097606,42.2684869 49.0239411,44.3863481 46.7403315,46.196587 C44.4567219,48.0068259 41.7900552,49.4266212 38.7403315,50.4559727 C35.6906077,51.4853242 32.2799263,52 28.5082873,52 C24.1473297,52 20.213628,51.4025028 16.7071823,50.2075085 C13.2007366,49.0125142 10.2099448,47.2732651 7.73480663,44.9897611 C5.25966851,42.7062571 3.35174954,39.9080774 2.01104972,36.5952218 C0.670349908,33.2823663 0,29.5080774 0,25.2723549 C0,21.9831627 0.633517495,18.8182025 1.90055249,15.7774744 C3.16758748,12.7367463 5.01657459,10.0450512 7.44751381,7.70238908 C9.87845304,5.35972696 12.854512,3.49032992 16.3756906,2.09419795 C19.8968692,0.698065984 23.9116022,0 28.4198895,0 C32.2504604,0 35.6685083,0.437770193 38.6740331,1.31331058 C41.679558,2.18885097 44.3167587,3.40159272 46.5856354,4.95153584 C48.854512,6.50147895 50.7624309,8.34129693 52.3093923,10.4709898 C53.8563536,12.6006826 55.0865562,14.9315131 56,17.4634812 L45.1712707,17.4634812 C43.6095764,13.9376564 41.4585635,11.3051195 38.718232,9.56587031 C35.9779006,7.82662116 32.5451197,6.95699659 28.4198895,6.95699659 C25.7679558,6.95699659 23.3443831,7.44209329 21.1491713,8.41228669 C18.9539595,9.38248009 17.0607735,10.7017065 15.4696133,12.3699659 C13.878453,14.0382253 12.640884,15.9845279 11.7569061,18.2088737 C10.8729282,20.4332196 10.4309392,22.7995449 10.4309392,25.3078498 Z" id="路径"></path>
                        <path d="M120,25.8757679 C120,29.709215 119.366667,33.229124 118.1,36.4354949 C116.833333,39.6418658 114.984884,42.3986348 112.554651,44.705802 C110.124419,47.0129693 107.14186,48.8054608 103.606977,50.0832765 C100.072093,51.3610922 96.0217054,52 91.455814,52 C86.8899225,52 82.8468992,51.3551763 79.3267442,50.065529 C75.8065891,48.7758817 72.8313953,46.9774744 70.4011628,44.6703072 C67.9709302,42.3631399 66.129845,39.6063709 64.877907,36.4 C63.625969,33.1936291 63,29.6737201 63,25.840273 C63,22.0068259 63.625969,18.5046644 64.877907,15.3337884 C66.129845,12.1629124 67.9709302,9.44163823 70.4011628,7.16996587 C72.8313953,4.89829352 75.8065891,3.13538111 79.3267442,1.88122867 C82.8468992,0.627076223 86.8899225,0 91.455814,0 C96.0217054,0 100.072093,0.632992036 103.606977,1.89897611 C107.14186,3.16496018 110.124419,4.9337884 112.554651,7.20546075 C114.984884,9.47713311 116.833333,12.1984073 118.1,15.3692833 C119.366667,18.5401593 120,22.0423208 120,25.8757679 Z M109.572093,25.840273 C109.572093,22.8350398 109.100775,20.1610922 108.15814,17.81843 C107.215504,15.4757679 105.926744,13.505802 104.29186,11.9085324 C102.656977,10.3112628 100.742248,9.09260523 98.5476744,8.25255973 C96.3531008,7.41251422 93.9891473,6.99249147 91.455814,6.99249147 C88.8930233,6.99249147 86.5143411,7.41251422 84.3197674,8.25255973 C82.1251938,9.09260523 80.2251938,10.3112628 78.6197674,11.9085324 C77.0143411,13.505802 75.7476744,15.4757679 74.8197674,17.81843 C73.8918605,20.1610922 73.427907,22.8350398 73.427907,25.840273 C73.427907,28.8455063 73.8918605,31.5312856 74.8197674,33.8976109 C75.7476744,36.2639363 77.0143411,38.269397 78.6197674,39.9139932 C80.2251938,41.5585893 82.1251938,42.8127418 84.3197674,43.6764505 C86.5143411,44.5401593 88.8930233,44.9720137 91.455814,44.9720137 C93.9891473,44.9720137 96.3531008,44.5401593 98.5476744,43.6764505 C100.742248,42.8127418 102.656977,41.5585893 104.29186,39.9139932 C105.926744,38.269397 107.215504,36.2639363 108.15814,33.8976109 C109.100775,31.5312856 109.572093,28.8455063 109.572093,25.840273 Z" id="形状"></path>
                        <path d="M132,2 L155.788296,2 C160.001721,2 163.783563,2.63811231 167.133821,3.91433692 C170.484079,5.19056153 173.336919,6.93512545 175.692341,9.14802867 C178.047762,11.3609319 179.854561,13.9485066 181.112737,16.9107527 C182.370912,19.8729988 183,23.0401434 183,26.4121864 C183,29.9247312 182.341652,33.1796894 181.024957,36.1770609 C179.708262,39.1744325 177.850258,41.7737157 175.450947,43.9749104 C173.051635,46.1761051 170.184165,47.8972521 166.848537,49.1383513 C163.512909,50.3794504 159.826162,51 155.788296,51 L132,51 L132,2 Z M142.358003,43.9046595 L153.330465,43.9046595 C156.110155,43.9046595 158.685026,43.5241338 161.055077,42.7630824 C163.425129,42.0020311 165.466007,40.883871 167.177711,39.4086022 C168.889415,37.9333333 170.228055,36.1126643 171.193632,33.946595 C172.159208,31.7805257 172.641997,29.2924731 172.641997,26.4824373 C172.641997,23.4616487 172.151893,20.8506571 171.171687,18.6494624 C170.19148,16.4482676 168.845525,14.6334528 167.133821,13.2050179 C165.422117,11.776583 163.381239,10.7169654 161.011188,10.0261649 C158.641136,9.3353644 156.080895,8.98996416 153.330465,8.98996416 L142.358003,8.98996416 L142.358003,43.9046595 Z" id="形状"></path>
                        <path d="M239.584071,6 L239.584071,8.98996416 L239.584071,8.98996416 L206.442478,8.98996416 L206.442478,22.2322581 L230.5,22.4749104 L230.5,29.5 L206.442478,29.2573477 L206.442478,43.9046595 L241,43.9046595 L241,51 L196,51 L196,2 L235.584071,2 C237.79321,2 239.584071,3.790861 239.584071,6 Z" id="路径"></path>
                        <path d="M307.5,16.0150538 L294.696203,51 L287.603153,51 C285.863773,51 284.323765,49.8759453 283.793536,48.2193529 L269,2 L269,2 L279.898734,2 L290.132911,34.5261649 L301.726101,4.55687099 C302.322208,3.01588838 303.804439,2 305.456701,2 L309.501667,2 C311.1526,2 312.633926,3.01427821 313.230953,4.55347944 L324.734177,34.2100358 L324.734177,34.2100358 L335.189873,2 L346,2 L331.120875,48.2255968 C330.588671,49.879016 329.050224,51 327.313262,51 L320.303797,51 L320.303797,51 L307.5,16.0150538 Z" id="路径"></path>
                        <polygon id="路径" points="366 2 366 51 356 51 356 2"></polygon>
                        <path d="M427,6 L427,8.98996416 L427,8.98996416 L407.689008,8.98996416 L407.689008,51 L397.354781,51 L397.354781,8.98996416 L378,8.98996416 L378,2 L423,2 C425.209139,2 427,3.790861 427,6 Z" id="路径"></path>
                        <path d="M449.484134,2 L449.484134,22.1971326 L477.515866,22.1971326 L477.515866,2 L484,2 C486.209139,2 488,3.790861 488,6 L488,51 L488,51 L477.515866,51 L477.515866,29.0817204 L449.484134,29.0817204 L449.484134,51 L439,51 L439,2 L449.484134,2 Z" id="路径"></path>
                        <path d="M555.570278,4.33082712 L577,51 L577,51 L568.657329,51 C567.099664,51 565.68367,50.0957501 565.028438,48.6826004 L556.25,29.75 L556.25,29.75 L548.5,12.75 C547.441176,15.1151135 540.382353,30.3380526 539.25,32.75 C538.55214,34.2364647 536.082269,39.5475187 531.840388,48.6831622 L531.840919,48.6834087 C531.185572,50.0959834 529.770011,50.9998379 528.212819,51 L520,51 L520,51 L541.429722,4.33082712 C542.081958,2.91040157 543.501793,2 545.06481,2 L551.93519,2 C553.498207,2 554.918042,2.91040157 555.570278,4.33082712 Z" id="形状"></path>
                        <path d="M596.406299,26.0177474 C596.406299,29.0703072 596.891339,31.7738339 597.861417,34.1283276 C598.831496,36.4828214 600.146982,38.4646189 601.807874,40.0737201 C603.468766,41.6828214 605.401575,42.9073948 607.606299,43.7474403 C609.811024,44.5874858 612.148031,45.0075085 614.617323,45.0075085 C616.645669,45.0075085 618.629921,44.6052332 620.570079,43.8006826 C622.510236,42.996132 624.266667,41.9253697 625.83937,40.5883959 C627.412073,39.2514221 628.727559,37.7073948 629.785827,35.956314 C630.844094,34.2052332 631.505512,32.3831627 631.770079,30.4901024 L613.60315,30.4901024 L613.60315,27.462116 C613.60315,25.252977 615.394011,23.462116 617.60315,23.462116 L638,23.462116 C640.209139,23.462116 642,25.252977 642,27.462116 L642,50.7576792 L642,50.7576792 L634.195276,50.7576792 L632.96063,44.865529 C631.784777,45.8593857 630.48399,46.7881684 629.058268,47.6518771 C627.632546,48.5155859 626.140682,49.2668942 624.582677,49.905802 C623.024672,50.5447099 621.407874,51.0534699 619.732283,51.4320819 C618.056693,51.810694 616.395801,52 614.749606,52 C610.340157,52 606.364304,51.3433447 602.822047,50.0300341 C599.27979,48.7167235 596.259318,46.9005688 593.76063,44.58157 C591.261942,42.2625711 589.343832,39.5176337 588.006299,36.3467577 C586.668766,33.1758817 586,29.7328783 586,26.0177474 C586,23.8643914 586.286614,21.7228669 586.859843,19.5931741 C587.433071,17.4634812 588.270866,15.4343572 589.373228,13.505802 C590.475591,11.5772469 591.835171,9.79067122 593.451969,8.14607509 C595.068766,6.50147895 596.928084,5.07576792 599.029921,3.86894198 C601.131759,2.66211604 603.461417,1.71558589 606.018898,1.02935154 C608.576378,0.343117179 611.354331,0 614.352756,0 C618.174278,0 621.584252,0.437770193 624.582677,1.31331058 C627.581102,2.18885097 630.212073,3.40159272 632.475591,4.95153584 C634.739108,6.50147895 636.64252,8.34129693 638.185827,10.4709898 C639.729134,12.6006826 640.95643,14.9315131 641.867717,17.4634812 L631.064567,17.4634812 C629.506562,13.9376564 627.36063,11.3051195 624.626772,9.56587031 C621.892913,7.82662116 618.468241,6.95699659 614.352756,6.95699659 C611.707087,6.95699659 609.289239,7.45984073 607.099213,8.46552901 C604.909186,9.47121729 603.020472,10.843686 601.433071,12.5829352 C599.845669,14.3221843 598.611024,16.3453925 597.729134,18.6525597 C596.847244,20.959727 596.406299,23.4147895 596.406299,26.0177474 Z" id="路径"></path>
                        <path d="M726.939312,2 L753.525362,39.2681004 L753.525362,2 L760,2 C762.209139,2 764,3.790861 764,6 L764,51 L764,51 L752.193841,51 L725.474638,13.3806452 L725.474638,51 L715,51 L715,2 L726.939312,2 Z" id="路径"></path>
                        <path d="M701.584071,6 L701.584071,8.98996416 L701.584071,8.98996416 L668.442478,8.98996416 L668.442478,22.2322581 L692.5,22.4749104 L692.5,29.5 L668.442478,29.2573477 L668.442478,43.9046595 L703,43.9046595 L703,51 L658,51 L658,2 L697.584071,2 C699.79321,2 701.584071,3.790861 701.584071,6 Z" id="路径"></path>
                        <path d="M824,6 L824,8.98996416 L824,8.98996416 L804.689008,8.98996416 L804.689008,51 L794.354781,51 L794.354781,8.98996416 L775,8.98996416 L775,2 L820,2 C822.209139,2 824,3.790861 824,6 Z" id="路径"></path>
                        <path d="M842.750929,33.4361775 C842.899628,35.1399317 843.33829,36.6957907 844.066914,38.1037543 C844.795539,39.5117179 845.754647,40.7244596 846.944238,41.7419795 C848.133829,42.7594994 849.531599,43.5463026 851.137546,44.1023891 C852.743494,44.6584755 854.513011,44.9365188 856.446097,44.9365188 C858.141264,44.9365188 859.769517,44.7945392 861.330855,44.5105802 C862.892193,44.2266212 864.267658,43.7651877 865.457249,43.1262799 C866.64684,42.487372 867.598513,41.6532423 868.312268,40.6238908 C869.026022,39.5945392 869.3829,38.334471 869.3829,36.843686 C869.3829,35.4948805 868.869888,34.3649602 867.843866,33.4539249 C866.817844,32.5428896 865.472119,31.7442548 863.806691,31.0580205 C862.141264,30.3717861 860.237918,29.7565415 858.096654,29.2122867 C855.95539,28.6680319 853.776952,28.1001138 851.561338,27.5085324 C849.345725,26.9169511 847.167286,26.2484642 845.026022,25.5030717 C842.884758,24.7576792 840.981413,23.8466439 839.315985,22.7699659 C837.650558,21.6932878 836.304833,20.3977247 835.27881,18.8832765 C834.252788,17.3688282 833.739777,15.5467577 833.739777,13.4170648 C833.739777,11.2400455 834.275093,9.31740614 835.345725,7.64914676 C836.416357,5.98088737 837.925651,4.57883959 839.873606,3.44300341 C841.821561,2.30716724 844.141264,1.44937429 846.832714,0.869624573 C849.524164,0.289874858 852.475836,0 855.687732,0 C859.97026,0 863.531599,0.496928328 866.371747,1.49078498 C869.211896,2.48464164 871.494424,3.76837315 873.219331,5.34197952 C874.944238,6.91558589 876.193309,8.66075085 876.966543,10.5774744 C877.739777,12.494198 878.200743,14.3754266 878.349442,16.2211604 L867.598513,16.2211604 C867.420074,14.6357224 866.996283,13.2632537 866.327138,12.1037543 C865.657993,10.9442548 864.788104,9.98589306 863.717472,9.22866894 C862.64684,8.47144482 861.427509,7.90944255 860.05948,7.54266212 C858.69145,7.17588168 857.234201,6.99249147 855.687732,6.99249147 C854.289963,6.99249147 852.907063,7.10489192 851.539033,7.32969283 C850.171004,7.55449374 848.951673,7.92127418 847.881041,8.43003413 C846.810409,8.93879408 845.947955,9.60136519 845.29368,10.4177474 C844.639405,11.2341297 844.312268,12.2339022 844.312268,13.4170648 C844.312268,14.7895336 844.825279,15.9431172 845.851301,16.8778157 C846.877323,17.8125142 848.223048,18.6288965 849.888476,19.3269625 C851.553903,20.0250284 853.457249,20.6521047 855.598513,21.2081911 C857.739777,21.7642776 859.925651,22.3440273 862.156134,22.9474403 C864.386617,23.5508532 866.572491,24.2193402 868.713755,24.952901 C870.855019,25.6864619 872.758364,26.5856655 874.423792,27.6505119 C876.089219,28.7153584 877.434944,29.9931741 878.460967,31.483959 C879.486989,32.974744 880,34.7613197 880,36.843686 C880,39.3756542 879.412639,41.5881684 878.237918,43.4812287 C877.063197,45.374289 875.427509,46.9478953 873.330855,48.2020478 C871.234201,49.4562002 868.750929,50.4027304 865.881041,51.0416382 C863.011152,51.6805461 859.866171,52 856.446097,52 C853.3829,52 850.408922,51.5740614 847.524164,50.7221843 C844.639405,49.8703072 842.05948,48.639818 839.784387,47.0307167 C837.509294,45.4216155 835.665428,43.4753129 834.252788,41.1918089 C832.840149,38.9083049 832.089219,36.3230944 832,33.4361775 L842.750929,33.4361775 Z" id="路径"></path>
                    </g>
                </g>
            </g>
        </g>
    </g>
</svg>
